<svg width="499" height="64" viewBox="0 0 499 64" fill="none" xmlns="http://www.w3.org/2000/svg">
<path d="M13.3667 63.8518H0L23.2863 0H33.4776L34.0423 10.4393L34.5727 0H38.8436L43.3349 17.5929L44.275 38.32L44.8054 7.97326L53.7226 45.6286L54.2977 63.8518H48.9213L44.9534 45.6286L44.6917 63.8518H43.9615L43.4623 54.828L34.7725 15.9741L34.0423 46.934L33.2569 24.5364L30.5429 14.3554L13.3667 63.8518Z" fill="#F7F7F7"/>
<path d="M61.0206 63.8518H54.7212L55.0347 36.0779L61.0206 63.8518Z" fill="#F7F7F7"/>
<path d="M476.774 52.4417C478.846 52.4417 480.626 51.9693 482.104 51.0184C483.588 50.013 484.769 48.7047 485.659 47.1058C486.61 45.4462 487.228 43.6412 487.525 41.6848C486.283 41.3275 484.799 40.9764 483.079 40.619C481.359 40.2617 479.615 40.0859 477.834 40.0859C475.169 40.0859 473.061 40.6795 471.523 41.8605C470.039 43.0476 469.3 44.6467 469.3 46.6576C469.3 48.3171 469.954 49.7101 471.256 50.8367C472.619 51.9027 474.454 52.4356 476.768 52.4356L476.774 52.4417ZM474.466 60.7092C471.087 60.7092 468.216 60.1157 465.848 58.9346C463.48 57.693 461.668 56.0637 460.427 54.0468C459.185 52.0299 458.561 49.8373 458.561 47.4691C458.561 42.8478 460.221 39.2622 463.54 36.7123C466.92 34.1624 471.329 32.8906 476.78 32.8906C479.269 32.8906 481.462 33.0964 483.358 33.5143C485.314 33.8716 486.883 34.2229 488.07 34.5803V32.5332C488.07 29.2746 487.149 26.8761 485.314 25.3316C483.539 23.7932 481.195 23.018 478.294 23.018C476.162 23.018 474.266 23.4601 472.607 24.3505C470.947 25.1803 469.881 26.7186 469.409 28.9717H459.276C459.633 25.7738 460.699 23.1027 462.474 20.9708C464.249 18.8388 466.502 17.2399 469.227 16.1739C472.013 15.0473 475.036 14.484 478.294 14.484C484.751 14.484 489.76 16.0829 493.315 19.2809C496.931 22.4183 498.736 26.8338 498.736 32.521V59.6311H489.045V53.2291C487.561 55.361 485.611 57.1418 483.176 58.559C480.747 59.9824 477.846 60.691 474.466 60.691V60.7092Z" fill="white"/>
<path d="M379.618 59.6434V15.5562H390.284V21.1527C391.707 19.0813 393.573 17.4519 395.88 16.2648C398.194 15.0777 400.829 14.4902 403.79 14.4902C407.17 14.4902 410.071 15.1747 412.5 16.5375C414.929 17.8397 416.855 19.8262 418.278 22.4912C419.877 20.0019 422.009 18.0456 424.68 16.6222C427.405 15.1989 430.367 14.4902 433.565 14.4902C439.192 14.4902 443.547 16.2104 446.63 19.6445C449.713 23.0242 451.251 27.9967 451.251 34.5744V59.6373H440.676V35.6404C440.676 31.6732 439.906 28.6813 438.362 26.6644C436.824 24.593 434.51 23.5511 431.427 23.5511C428.344 23.5511 425.74 24.7079 423.784 27.0156C421.827 29.3232 420.852 32.612 420.852 36.882V59.6373H410.186V35.6404C410.186 31.6732 409.386 28.6813 407.788 26.6644C406.249 24.593 403.905 23.5511 400.768 23.5511C397.63 23.5511 395.171 24.7079 393.215 27.0156C391.259 29.3232 390.284 32.612 390.284 36.882V59.6373H379.618V59.6434Z" fill="white"/>
<path d="M349.915 51.4668C352.168 51.4668 354.209 50.9641 356.051 49.9586C357.946 48.8927 359.461 47.3542 360.581 45.3373C361.708 43.2658 362.271 40.6857 362.271 37.6028C362.271 34.5199 361.708 31.9761 360.581 29.9592C359.455 27.8878 357.946 26.3433 356.051 25.3378C354.216 24.2718 352.199 23.7389 350.006 23.7389C347.814 23.7389 345.682 24.2718 343.786 25.3378C341.89 26.3433 340.376 27.8878 339.255 29.9592C338.129 31.9761 337.565 34.5199 337.565 37.6028C337.565 40.6857 338.129 43.2598 339.255 45.3373C340.382 47.3542 341.86 48.8927 343.701 49.9586C345.597 50.9641 347.668 51.4668 349.921 51.4668H349.915ZM349.915 60.7094C345.53 60.7094 341.563 59.7585 338.008 57.8627C334.513 55.9064 331.727 53.1809 329.655 49.6861C327.584 46.1914 326.542 42.1635 326.542 37.5967C326.542 33.0299 327.578 28.9477 329.655 25.5074C331.727 22.0127 334.543 19.3175 338.098 17.4218C341.654 15.4654 345.597 14.4902 349.921 14.4902C354.246 14.4902 358.334 15.4654 361.829 17.4218C365.324 19.3175 368.11 22.0127 370.181 25.5074C372.253 28.9416 373.294 32.9754 373.294 37.5967C373.294 42.218 372.259 46.1914 370.181 49.6861C368.104 53.1809 365.293 55.9064 361.738 57.8627C358.243 59.7585 354.3 60.7094 349.915 60.7094Z" fill="white"/>
<path d="M277.713 59.6434V15.5562H288.379V22.4004C289.863 19.9716 291.843 18.0456 294.332 16.6222C296.882 15.1989 299.783 14.4902 303.042 14.4902C308.493 14.4902 312.733 16.2104 315.749 19.6445C318.771 23.0242 320.28 27.9967 320.28 34.5744V59.6373H309.614V35.6404C309.614 31.6732 308.784 28.6813 307.124 26.6644C305.525 24.593 303.066 23.5511 299.747 23.5511C296.428 23.5511 293.763 24.7079 291.571 27.0156C289.439 29.3292 288.373 32.612 288.373 36.882V59.6373H277.707L277.713 59.6434Z" fill="white"/>
<path d="M248.101 51.4668C250.354 51.4668 252.395 50.9641 254.237 49.9586C256.132 48.8927 257.647 47.3542 258.767 45.3373C259.894 43.2658 260.457 40.6857 260.457 37.6028C260.457 34.5199 259.894 31.9761 258.767 29.9592C257.641 27.8878 256.132 26.3433 254.237 25.3378C252.401 24.2718 250.385 23.7389 248.192 23.7389C245.999 23.7389 243.867 24.2718 241.972 25.3378C240.076 26.3433 238.562 27.8878 237.441 29.9592C236.315 31.9761 235.751 34.5199 235.751 37.6028C235.751 40.6857 236.315 43.2598 237.441 45.3373C238.568 47.3542 240.046 48.8927 241.887 49.9586C243.783 50.9641 245.854 51.4668 248.107 51.4668H248.101ZM248.101 60.7094C243.716 60.7094 239.749 59.7585 236.194 57.8627C232.699 55.9064 229.913 53.1809 227.842 49.6861C225.77 46.1914 224.728 42.1635 224.728 37.5967C224.728 33.0299 225.764 28.9477 227.842 25.5074C229.913 22.0127 232.729 19.3175 236.285 17.4218C239.84 15.4654 243.783 14.4902 248.107 14.4902C252.432 14.4902 256.52 15.4654 260.015 17.4218C263.51 19.3175 266.296 22.0127 268.367 25.5074C270.438 28.9416 271.48 32.9754 271.48 37.5967C271.48 42.218 270.445 46.1914 268.367 49.6861C266.29 53.1809 263.479 55.9064 259.924 57.8627C256.429 59.7585 252.486 60.7094 248.101 60.7094Z" fill="white"/>
<path d="M213.887 59.6435C211.04 59.6435 208.641 59.3164 206.685 58.6683C204.729 57.9597 203.251 56.6514 202.24 54.7557C201.234 52.8599 200.731 50.1041 200.731 46.4882V24.5325H193.179V15.5563H200.731L205.516 4H211.397V15.5563H222.954V24.5325H211.397V45.0648C211.397 46.6638 211.543 47.851 211.839 48.6202C212.197 49.3894 212.79 49.9224 213.614 50.2191C214.444 50.4554 215.661 50.5765 217.26 50.5765H222.505V59.6435H213.887Z" fill="white"/>
<path d="M164.373 60.7093C159.394 60.7093 155.427 59.0194 152.465 55.6458C149.564 52.2117 148.11 47.2027 148.11 40.625V15.5623H158.685V39.5592C158.685 43.5264 159.455 46.5487 160.999 48.6261C162.537 50.643 164.76 51.6485 167.668 51.6485C170.926 51.6485 173.476 50.4916 175.311 48.184C177.207 45.8703 178.158 42.5875 178.158 38.3175V15.5623H188.824V59.6494H178.158V52.9809C176.856 55.4097 175.045 57.3054 172.737 58.6681C170.424 60.0309 167.643 60.7154 164.385 60.7154L164.373 60.7093Z" fill="white"/>
<path d="M116.676 52.4417C118.747 52.4417 120.528 51.9693 122.006 51.0184C123.49 50.013 124.671 48.7047 125.561 47.1058C126.512 45.4462 127.13 43.6412 127.427 41.6848C126.185 41.3275 124.701 40.9764 122.981 40.619C121.261 40.2617 119.516 40.0859 117.736 40.0859C115.071 40.0859 112.963 40.6795 111.424 41.8605C109.94 43.0476 109.202 44.6467 109.202 46.6576C109.202 48.3171 109.856 49.7101 111.158 50.8367C112.521 51.9027 114.356 52.4356 116.67 52.4356L116.676 52.4417ZM114.362 60.7092C110.982 60.7092 108.111 60.1157 105.743 58.9346C103.375 57.693 101.564 56.0637 100.323 54.0468C99.0809 52.0299 98.457 49.8373 98.457 47.4691C98.457 42.8478 100.116 39.2622 103.436 36.7123C106.815 34.1624 111.225 32.8906 116.676 32.8906C119.165 32.8906 121.358 33.0964 123.253 33.5143C125.21 33.8716 126.778 34.2229 127.965 34.5803V32.5332C127.965 29.2746 127.045 26.8761 125.21 25.3316C123.435 23.7932 121.091 23.018 118.19 23.018C116.058 23.018 114.162 23.4601 112.503 24.3505C110.843 25.1803 109.777 26.7186 109.304 28.9717H99.1715C99.5289 25.7738 100.595 23.1027 102.37 20.9708C104.144 18.8388 106.397 17.2399 109.123 16.1739C111.909 15.0473 114.931 14.484 118.19 14.484C124.646 14.484 129.655 16.0829 133.211 19.2809C136.827 22.4183 138.632 26.8338 138.632 32.521V59.6311H128.941V53.2291C127.457 55.361 125.507 57.1418 123.072 58.559C120.643 59.9824 117.742 60.691 114.362 60.691V60.7092Z" fill="white"/>
</svg>
